<?xml version="1.0" encoding="UTF-8"?>
<svg version="1.1" xmlns="http://www.w3.org/2000/svg" width="512" height="512">
<path d="M0 0 C1.00707001 -0.00700928 2.01414001 -0.01401855 3.05172729 -0.02124023 C6.37721411 -0.03883055 9.70184843 -0.02719328 13.02734375 -0.01367188 C15.33992679 -0.01636648 17.65250873 -0.02024863 19.96508789 -0.02526855 C24.8104939 -0.03116503 29.65560486 -0.02259549 34.50097656 -0.00390625 C40.71205634 0.01888297 46.92244474 0.00576075 53.13349915 -0.01819611 C57.90845957 -0.03264979 62.68325607 -0.02804997 67.45822144 -0.01768494 C69.74836306 -0.01501648 72.03851956 -0.01829155 74.3286438 -0.02760315 C77.52939278 -0.03776124 80.72902193 -0.02227686 83.9296875 0 C85.3496553 -0.01214539 85.3496553 -0.01214539 86.79830933 -0.02453613 C91.01523976 0.02984016 93.33811446 0.12813901 96.98616028 2.39497375 C99.1630988 4.7302534 100.64500146 6.97106676 102.1640625 9.77929688 C102.72794678 10.80659912 103.29183105 11.83390137 103.87280273 12.89233398 C104.46005127 13.98553955 105.0472998 15.07874512 105.65234375 16.20507812 C106.90615528 18.49230271 108.1613664 20.77876062 109.41796875 23.06445312 C110.02705078 24.17755859 110.63613281 25.29066406 111.26367188 26.4375 C113.40761106 30.31923604 115.63252852 34.14597956 117.90234375 37.95507812 C122.27436955 45.31668198 126.56468298 52.72442908 130.83984375 60.14257812 C131.48300537 61.25818115 132.12616699 62.37378418 132.78881836 63.52319336 C133.99068894 65.60927131 135.19106277 67.69621261 136.38964844 69.78417969 C137.35094217 71.45228952 138.31872295 73.11670986 139.29785156 74.77441406 C141.96484375 79.30993985 141.96484375 79.30993985 141.96484375 81.51757812 C143.65494064 81.50758537 143.65494064 81.50758537 145.37918091 81.49739075 C156.00233772 81.43655132 166.62545913 81.39159182 177.24875069 81.36214161 C182.71017854 81.34649193 188.17146565 81.32526617 193.6328125 81.29125977 C198.90422828 81.25864177 204.17550875 81.24071986 209.44701767 81.2329464 C211.45724492 81.2274073 213.46746485 81.21659079 215.47763443 81.20038795 C218.29531048 81.17858143 221.1124288 81.17561257 223.93017578 81.17700195 C224.75952133 81.16621613 225.58886688 81.1554303 226.44334412 81.14431763 C231.35795854 81.17050563 234.69896172 81.8097226 238.96484375 84.51757812 C240.7734375 86.74023438 240.7734375 86.74023438 242.40234375 89.58007812 C242.72323975 90.12897705 243.04413574 90.67787598 243.37475586 91.2434082 C244.1344011 92.54901098 244.88608469 93.85926312 245.63183594 95.17285156 C247.16679468 97.87280464 248.72531892 100.55848479 250.28515625 103.24414062 C253.18864289 108.2513789 256.07730339 113.26694639 258.95922852 118.28662109 C261.88453321 123.38084549 264.82113867 128.46849309 267.76123047 133.55419922 C269.01574901 135.72733758 270.26740768 137.90212956 271.51611328 140.07861328 C274.48536179 145.25174255 277.48450963 150.39971216 280.57421875 155.50195312 C281.13665283 156.44514404 281.69908691 157.38833496 282.27856445 158.36010742 C283.32367639 160.11076027 284.38362926 161.85268191 285.46166992 163.58325195 C288.61023444 168.90523933 290.46027072 173.33685429 288.96484375 179.51757812 C287.11447366 183.76661792 284.770433 187.64043883 282.33984375 191.58007812 C281.65166145 192.72797933 280.96549708 193.87709248 280.28125 195.02734375 C278.8747205 197.38667959 277.45859777 199.73980176 276.03417969 202.08837891 C272.36234368 208.15399328 268.82959985 214.30174838 265.27294922 220.43530273 C262.47859583 225.24284806 259.66237272 230.03354051 256.77539062 234.78594971 C255.33991693 237.15510724 253.92045196 239.53364284 252.50292969 241.91357422 C251.48638537 243.60669906 250.44847236 245.28693565 249.41015625 246.96679688 C248.79914063 247.99675781 248.188125 249.02671875 247.55859375 250.08789062 C247.00880859 250.99297363 246.45902344 251.89805664 245.89257812 252.83056641 C244.64246927 256.45127641 245.41739731 258.07118616 246.96484375 261.51757812 C247.8245201 263.18520859 248.73672451 264.82664692 249.6953125 266.43945312 C250.2433252 267.36910889 250.79133789 268.29876465 251.35595703 269.2565918 C251.94876465 270.25021729 252.54157227 271.24384277 253.15234375 272.26757812 C254.42512829 274.42474734 255.69724066 276.58231326 256.96875 278.74023438 C257.62762207 279.85543457 258.28649414 280.97063477 258.96533203 282.11962891 C262.20713749 287.62871906 265.399505 293.16607187 268.58984375 298.70507812 C269.20899658 299.77918945 269.82814941 300.85330078 270.46606445 301.95996094 C274.60190187 309.13939648 278.72626206 316.32536841 282.83984375 323.51757812 C283.599021 324.84438599 283.599021 324.84438599 284.37353516 326.19799805 C285.06455322 327.40806519 285.06455322 327.40806519 285.76953125 328.64257812 C286.17155762 329.34640625 286.57358398 330.05023438 286.98779297 330.77539062 C289.21302604 334.74322252 289.75061291 338.02222677 288.96484375 342.51757812 C287.18865014 346.70281877 284.90839289 350.54985636 282.58984375 354.45507812 C281.94716553 355.56826416 281.3044873 356.6814502 280.64233398 357.82836914 C278.76667551 361.06831323 276.86919073 364.29443563 274.96484375 367.51757812 C274.0877673 369.01712547 273.21135497 370.51706168 272.3359375 372.01757812 C270.7852762 374.66767576 269.22362595 377.3109312 267.65625 379.95117188 C264.20798417 385.77700306 260.84251646 391.65065282 257.46484375 397.51757812 C256.17723847 399.74813644 254.88948078 401.97860677 253.6015625 404.20898438 C251.36377498 408.08551731 249.13679577 411.96778684 246.921875 415.85742188 C246.0406555 417.39014126 245.15916758 418.92270635 244.27734375 420.45507812 C243.89191406 421.14021484 243.50648438 421.82535156 243.109375 422.53125 C240.36636048 427.26784829 238.16344513 429.784711 232.96484375 431.51757812 C230.16018911 431.51508008 227.38540047 431.45267691 224.5847168 431.34204102 C222.81056445 431.28264197 221.03636607 431.22460626 219.26213074 431.16773987 C217.84930345 431.12180285 217.84930345 431.12180285 216.40793419 431.07493782 C210.35336456 430.89998801 204.29664147 430.82747185 198.24019146 430.74736881 C192.92557281 430.67149946 187.61919575 430.55235175 182.30834961 430.3347168 C160.14512658 428.39270698 160.14512658 428.39270698 139.7414856 434.76147461 C134.75859111 440.3166606 132.16256546 446.59396059 129.92172241 453.64120483 C128.67684675 457.38329591 126.95040498 460.30864604 124.84375 463.63476562 C123.73799365 465.55387077 122.63251661 467.47313689 121.52734375 469.39257812 C120.92100098 470.4413916 120.3146582 471.49020508 119.68994141 472.57080078 C116.73316649 477.68914297 113.7905441 482.81440214 110.89176941 487.96578979 C109.53942617 490.36690411 108.17956941 492.7637221 106.81906128 495.16021729 C105.86360503 496.85054138 104.91908267 498.54703114 103.97485352 500.24365234 C103.09978149 501.78303467 103.09978149 501.78303467 102.20703125 503.35351562 C101.70026855 504.25634277 101.19350586 505.15916992 100.67138672 506.08935547 C98.28957183 509.47841568 96.13668733 512.13430976 91.86308098 512.88847923 C89.21115428 513.03901224 86.58585924 513.05787524 83.9296875 513.03515625 C82.41908249 513.04567017 82.41908249 513.04567017 80.87796021 513.05639648 C77.55247339 513.0739868 74.22783907 513.06234953 70.90234375 513.04882812 C68.58976071 513.05152273 66.27717877 513.05540488 63.96459961 513.0604248 C59.1191936 513.06632128 54.27408264 513.05775174 49.42871094 513.0390625 C43.21763116 513.01627328 37.00724276 513.0293955 30.79618835 513.05335236 C26.02122793 513.06780604 21.24643143 513.06320622 16.47146606 513.05284119 C14.18132444 513.05017273 11.89116794 513.0534478 9.6010437 513.0627594 C6.40029472 513.07291749 3.20066557 513.05743311 0 513.03515625 C-0.9466452 513.04325317 -1.89329041 513.0513501 -2.86862183 513.05969238 C-7.08555226 513.00531609 -9.40842696 512.90701724 -13.05647278 510.6401825 C-15.2334113 508.30490285 -16.71531396 506.06408949 -18.234375 503.25585938 C-19.08020142 501.71490601 -19.08020142 501.71490601 -19.94311523 500.14282227 C-20.82398804 498.50301392 -20.82398804 498.50301392 -21.72265625 496.83007812 C-22.97646778 494.54285354 -24.2316789 492.25639563 -25.48828125 489.97070312 C-26.09736328 488.85759766 -26.70644531 487.74449219 -27.33398438 486.59765625 C-29.47792356 482.71592021 -31.70284102 478.88917669 -33.97265625 475.08007812 C-38.34468205 467.71847427 -42.63499548 460.31072717 -46.91015625 452.89257812 C-47.55331787 451.7769751 -48.19647949 450.66137207 -48.85913086 449.51196289 C-50.06100144 447.42588494 -51.26137527 445.33894364 -52.45996094 443.25097656 C-53.42125467 441.58286673 -54.38903545 439.91844639 -55.36816406 438.26074219 C-58.03515625 433.7252164 -58.03515625 433.7252164 -58.03515625 431.51757812 C-59.72525314 431.52757088 -59.72525314 431.52757088 -61.44949341 431.5377655 C-72.07265022 431.59860493 -82.69577163 431.64356443 -93.31906319 431.67301464 C-98.78049104 431.68866432 -104.24177815 431.70989008 -109.703125 431.74389648 C-114.97454078 431.77651448 -120.24582125 431.79443639 -125.51733017 431.80220985 C-127.52755742 431.80774895 -129.53777735 431.81856546 -131.54794693 431.8347683 C-134.36562298 431.85657482 -137.1827413 431.85954368 -140.00048828 431.8581543 C-141.24450661 431.87433304 -141.24450661 431.87433304 -142.51365662 431.89083862 C-147.42412403 431.86467272 -150.78438034 431.24500253 -155.03515625 428.51757812 C-157.10302734 425.84887695 -157.10302734 425.84887695 -158.93359375 422.66210938 C-159.26869965 422.08870316 -159.60380554 421.51529694 -159.94906616 420.92451477 C-160.99287719 419.13043687 -162.01453052 417.32492337 -163.03515625 415.51757812 C-163.66583008 414.42880371 -164.29650391 413.3400293 -164.94628906 412.21826172 C-166.86843893 408.89023365 -168.76650851 405.54939699 -170.66015625 402.20507812 C-172.06214515 399.73798763 -173.46628341 397.27212546 -174.87109375 394.80664062 C-175.22115479 394.19206497 -175.57121582 393.57748932 -175.93188477 392.94429016 C-179.34178615 386.96543344 -182.80917815 381.02072551 -186.28515625 375.08007812 C-186.84944336 374.11030029 -187.41373047 373.14052246 -187.99511719 372.14135742 C-190.82100946 367.28593841 -193.67334019 362.44970929 -196.57421875 357.63867188 C-197.68640106 355.76509453 -198.79838866 353.89140159 -199.91015625 352.01757812 C-200.42868164 351.17525635 -200.94720703 350.33293457 -201.48144531 349.46508789 C-204.4252408 344.45911814 -206.38324504 340.35407657 -205.03515625 334.51757812 C-203.78868983 331.3302802 -202.15250002 328.45785777 -200.41015625 325.51757812 C-199.67297363 324.227146 -199.67297363 324.227146 -198.92089844 322.91064453 C-197.30997462 320.10233099 -195.67410556 317.30961465 -194.03515625 314.51757812 C-192.92755456 312.60920594 -191.82079157 310.70034675 -190.71484375 308.79101562 C-188.40181931 304.80728912 -186.07766036 300.83032219 -183.74609375 296.85742188 C-179.7689271 290.07491329 -175.83649955 283.26708196 -171.91015625 276.45507812 C-171.28270508 275.36694824 -170.65525391 274.27881836 -170.00878906 273.15771484 C-168.85132008 271.14931399 -167.69921949 269.13780512 -166.55371094 267.12255859 C-165.62758881 265.53385713 -164.66715221 263.96375668 -163.64941406 262.43212891 C-161.83185505 259.65568224 -160.9594226 258.08960889 -161.40234375 254.74414062 C-163.79908746 250.00799157 -166.43851567 245.44862679 -169.16015625 240.89257812 C-170.43217572 238.73833014 -171.70295911 236.58335194 -172.97265625 234.42773438 C-173.6378125 233.29996582 -174.30296875 232.17219727 -174.98828125 231.01025391 C-179.12281495 223.97448789 -183.14930438 216.87554444 -187.17626953 209.77783203 C-190.30287777 204.27155032 -193.45518422 198.78636808 -196.71484375 193.35742188 C-197.27800293 192.40826904 -197.84116211 191.45911621 -198.42138672 190.48120117 C-199.46088069 188.73324724 -200.51364019 186.99308038 -201.58251953 185.26293945 C-204.42377595 180.45016844 -206.47679031 176.17950022 -205.03515625 170.51757812 C-203.30887915 166.49061398 -201.14632053 162.78033479 -198.91015625 159.01757812 C-198.27779053 157.92243896 -197.6454248 156.8272998 -196.99389648 155.69897461 C-195.0237672 152.29549144 -193.0307483 148.90617944 -191.03515625 145.51757812 C-189.86049984 143.49890696 -188.68726488 141.47940783 -187.515625 139.45898438 C-185.22963348 135.52230684 -182.93309629 131.59206666 -180.62890625 127.66601562 C-178.08713058 123.32897031 -175.56852157 118.97915762 -173.06640625 114.61914062 C-172.73410507 114.04060837 -172.40180389 113.46207611 -172.05943298 112.86601257 C-170.46049709 110.08174818 -168.86407318 107.29609693 -167.27172852 104.50805664 C-165.54477673 101.4999337 -163.79490044 98.5066173 -162.03515625 95.51757812 C-161.44589355 94.49486816 -160.85663086 93.4721582 -160.24951172 92.41845703 C-159.66186035 91.4366748 -159.07420898 90.45489258 -158.46875 89.44335938 C-157.9523999 88.56719971 -157.4360498 87.69104004 -156.90405273 86.78833008 C-154.2611616 83.57715694 -151.30799052 81.7692986 -147.09114742 81.30227566 C-144.823548 81.2786005 -142.57947238 81.3549702 -140.31445312 81.46606445 C-138.54050327 81.52482123 -136.76653586 81.5830497 -134.99255371 81.64082336 C-134.05815964 81.6764419 -133.12376556 81.71206043 -132.16105652 81.74875832 C-127.17512639 81.92172369 -122.18732488 81.98801804 -117.19921875 82.0703125 C-110.86687955 82.17779122 -104.54144308 82.31697642 -98.21386719 82.59057617 C-76.1450909 84.58431237 -76.1450909 84.58431237 -55.82150269 78.28015137 C-50.83997101 72.72336492 -48.24161731 66.44174218 -45.99505615 59.39596558 C-44.74740738 55.6547249 -43.02043997 52.72678318 -40.9140625 49.40039062 C-39.80830615 47.48128548 -38.70282911 45.56201936 -37.59765625 43.64257812 C-36.99131348 42.59376465 -36.3849707 41.54495117 -35.76025391 40.46435547 C-32.80347899 35.34601328 -29.8608566 30.22075411 -26.96208191 25.06936646 C-25.60973867 22.66825214 -24.24988191 20.27143415 -22.88937378 17.87493896 C-21.93391753 16.18461487 -20.98939517 14.48812511 -20.04516602 12.79150391 C-19.17009399 11.25212158 -19.17009399 11.25212158 -18.27734375 9.68164062 C-17.77058105 8.77881348 -17.26381836 7.87598633 -16.74169922 6.94580078 C-12.03498418 0.24866376 -7.67500037 -0.06564645 0 0 Z " fill="#2F2A3B" transform="translate(214.03515625,-0.517578125)"/>
<path d="M0 0 C10.64778461 -0.39499659 21.29381231 -0.69646896 31.94744682 -0.88080692 C36.89566695 -0.96931916 41.8388565 -1.08916516 46.78417969 -1.2824707 C51.56332169 -1.46809732 56.33765146 -1.56899097 61.120121 -1.61291313 C62.93799822 -1.64417637 64.75562915 -1.70524927 66.57143784 -1.79741096 C78.11741098 -2.35977068 78.11741098 -2.35977068 83 0 C87.32403114 4.12256591 89.73688537 9.49895182 92.06968307 14.91377449 C93.40283632 17.90335603 95.04093285 20.63137087 96.73046875 23.43359375 C97.8837205 25.43437273 99.03605643 27.43567987 100.1875 29.4375 C105.67060726 38.97049004 105.67060726 38.97049004 111.1943512 48.47993469 C112.58849872 50.86844697 113.97911331 53.25900747 115.36953735 55.64968872 C116.35648645 57.34323191 117.34848462 59.0338294 118.34057617 60.72436523 C118.93717041 61.75118408 119.53376465 62.77800293 120.1484375 63.8359375 C120.67614746 64.73876465 121.20385742 65.6415918 121.74755859 66.57177734 C123.83621403 70.62124459 123.83621403 70.62124459 124 73 C122.86694336 75.64355469 122.86694336 75.64355469 121.08984375 78.671875 C120.4364502 79.79940186 119.78305664 80.92692871 119.10986328 82.08862305 C118.38598568 83.30922647 117.66185853 84.52968192 116.9375 85.75 C116.20184391 87.00952 115.46731819 88.26970086 114.73388672 89.53051758 C113.23118904 92.10916402 111.72154399 94.6835333 110.20556641 97.25439453 C108.17916837 100.69154392 106.17073123 104.13885702 104.16796875 107.58984375 C101.3181661 112.49805219 98.45588349 117.3987541 95.58544922 122.29492188 C94.0351284 124.94006426 92.48801984 127.58706374 90.94140625 130.234375 C90.02362168 131.80219116 89.10566444 133.36990627 88.1875 134.9375 C87.77258301 135.64801514 87.35766602 136.35853027 86.93017578 137.09057617 C84.11511093 141.88488907 84.11511093 141.88488907 83 143 C80.49019199 143.22258 78.00507831 143.3800565 75.48950195 143.49438477 C74.70229767 143.53308182 73.91509338 143.57177887 73.10403442 143.61164856 C65.79832808 143.95252385 58.48926928 144.16038481 51.17767048 144.32562351 C46.26714862 144.43928069 41.36737472 144.59763617 36.46264648 144.86547852 C4.90713344 146.54516348 4.90713344 146.54516348 -3.07540894 140.77816772 C-7.96761412 135.19654108 -10.6197091 128.87824382 -12.97579956 121.90505981 C-14.31443498 118.10813119 -16.12542368 115.04350555 -18.26171875 111.63671875 C-20.02519069 108.57733783 -21.78584059 105.51635713 -23.54516602 102.45458984 C-26.46487327 97.37786197 -29.39832309 92.31168953 -32.390625 87.27734375 C-32.90794189 86.40182861 -33.42525879 85.52631348 -33.95825195 84.62426758 C-34.91573844 83.00654368 -35.87999624 81.39280044 -36.85229492 79.78393555 C-37.27099854 79.07406494 -37.68970215 78.36419434 -38.12109375 77.6328125 C-38.4864624 77.02324707 -38.85183105 76.41368164 -39.22827148 75.78564453 C-40 74 -40 74 -40 70 C-38.78173828 67.3371582 -38.78173828 67.3371582 -37.0703125 64.30078125 C-36.44511719 63.1830835 -35.81992187 62.06538574 -35.17578125 60.91381836 C-34.49250106 59.7132004 -33.80890017 58.51276491 -33.125 57.3125 C-32.42783694 56.07526007 -31.73122564 54.83770908 -31.03515625 53.59985352 C-27.08154609 46.58625978 -23.07714423 39.60173316 -18.95584106 32.68513489 C-14.96483216 25.98719748 -11.0787818 19.22878438 -7.1875 12.47265625 C-6.48767688 11.25847733 -5.78780742 10.04432512 -5.08789062 8.8302002 C-3.39147281 5.88706152 -1.69552119 2.94365527 0 0 Z " fill="#FDB700" transform="translate(356,266)"/>
<path d="M0 0 C2.65720543 -0.33408049 5.08693923 -0.47163528 7.75097656 -0.48339844 C8.55117722 -0.49829315 9.35137787 -0.51318787 10.17582703 -0.52853394 C12.83083768 -0.57245148 15.48531036 -0.59281379 18.140625 -0.609375 C19.98427346 -0.62662833 21.82792173 -0.64390155 23.67156982 -0.66119385 C27.54197705 -0.69274086 31.41219708 -0.71025628 35.28271484 -0.72070312 C40.23798484 -0.73714188 45.19077464 -0.80916963 50.14526749 -0.89461899 C53.95608675 -0.95056011 57.76631187 -0.96611786 61.57750702 -0.97071075 C63.4036385 -0.97978243 65.22976014 -1.00384379 67.05548859 -1.0432663 C81.31388896 -1.32910383 81.31388896 -1.32910383 85.36981201 1.86804199 C86.95604632 4.19497331 88.0011763 6.37387693 89 9 C89.59651367 10.00546875 90.19302734 11.0109375 90.80761719 12.046875 C91.5447998 13.38492188 91.5447998 13.38492188 92.296875 14.75 C92.85785889 15.76175293 93.41884277 16.77350586 93.99682617 17.81591797 C94.86464722 19.39203857 94.86464722 19.39203857 95.75 21 C99.82298074 28.33618542 103.91230978 35.65450411 108.1875 42.875 C108.57292969 43.53153564 108.95835937 44.18807129 109.35546875 44.86450195 C111.56762897 48.62286999 113.83004121 52.34476183 116.12890625 56.05078125 C117.16944215 57.76291673 118.20980999 59.47515436 119.25 61.1875 C119.75297607 61.97817871 120.25595215 62.76885742 120.77416992 63.58349609 C124.09864215 69.11101772 124.09864215 69.11101772 123.6796875 72.88671875 C121.17500159 77.52912496 118.58047786 82.09636996 115.875 86.625 C114.60680809 88.7713886 113.33993547 90.91855711 112.07421875 93.06640625 C111.4095459 94.19320801 110.74487305 95.32000977 110.06005859 96.48095703 C105.88543611 103.58916514 101.8374483 110.77147015 97.77099609 117.94189453 C96.5501545 120.08777909 95.31013021 122.22290834 94.04766846 124.34457397 C92.61741281 126.80413871 91.42740222 129.26862984 90.32089233 131.8885498 C85.84476005 141.75684506 85.84476005 141.75684506 81.09366035 143.83306694 C75.44956193 145.1238344 69.70541492 144.72116412 63.96484375 144.46484375 C62.11691434 144.43683086 60.26887274 144.41549584 58.42079163 144.40052795 C53.57946715 144.34351862 48.74500303 144.19646933 43.90637207 144.02996826 C38.96001016 143.87590925 34.01252767 143.8078883 29.06445312 143.73242188 C19.37330355 143.5720288 9.68722421 143.31639464 0 143 C-0.40186272 142.27242493 -0.40186272 142.27242493 -0.81184387 141.53015137 C-6.00827699 132.12933967 -11.23803641 122.75723028 -16.6875 113.5 C-17.87413627 111.4729128 -19.06031649 109.44555857 -20.24609375 107.41796875 C-20.85308105 106.38075684 -21.46006836 105.34354492 -22.08544922 104.27490234 C-25.14845686 99.03552661 -28.20432289 93.79209672 -31.2472229 88.54101562 C-32.22967297 86.84753828 -33.21575112 85.15616737 -34.2019043 83.46484375 C-34.80043213 82.43101562 -35.39895996 81.3971875 -36.015625 80.33203125 C-36.54446289 79.42171143 -37.07330078 78.5113916 -37.61816406 77.57348633 C-38.96330289 75.06834351 -40.14842175 72.71498862 -41 70 C-39.75390625 67.14453125 -39.75390625 67.14453125 -37.5625 63.8125 C-36.70902755 62.47339594 -35.85903249 61.13207194 -35.01171875 59.7890625 C-34.5326709 59.03657227 -34.05362305 58.28408203 -33.56005859 57.50878906 C-30.53545714 52.64481339 -27.72172534 47.65689388 -24.875 42.6875 C-23.58748791 40.4503779 -22.29972272 38.21340144 -21.01171875 35.9765625 C-20.01524441 34.243713 -19.0187711 32.51086291 -18.0223999 30.7779541 C-15.24525386 25.9484953 -12.46581269 21.12036079 -9.68438721 16.29336548 C-8.70457848 14.59215285 -7.72605702 12.89019904 -6.74755859 11.18823242 C-6.15410645 10.15802979 -5.5606543 9.12782715 -4.94921875 8.06640625 C-4.42674561 7.15834229 -3.90427246 6.25027832 -3.3659668 5.31469727 C-2.30022034 3.50873799 -1.16319248 1.74478871 0 0 Z " fill="#FDFDFD" transform="translate(356,103)"/>
<path d="M0 0 C1.18063271 -0.03154175 1.18063271 -0.03154175 2.38511658 -0.0637207 C9.66499229 -0.24693623 16.94649347 -0.35281697 24.22813511 -0.4358654 C29.12151482 -0.49245318 34.01160825 -0.57391599 38.90332031 -0.71582031 C43.631616 -0.85242872 48.35693454 -0.92472446 53.08708 -0.95251846 C54.88671713 -0.97395498 56.68623703 -1.01793262 58.48474312 -1.08523178 C69.90430721 -1.4927837 69.90430721 -1.4927837 74.48608398 0.31982422 C78.46006063 4.23948379 80.30210892 8.17562301 82.48608398 13.31982422 C83.63845925 15.34913944 84.8131759 17.36612836 86.02124023 19.36279297 C87.19892737 21.40987477 88.37465573 23.45808451 89.54858398 25.50732422 C90.84671982 27.76516043 92.14489825 30.02297216 93.44311523 32.28076172 C94.11064694 33.44316719 94.77812701 34.60560232 95.44555664 35.76806641 C98.86797851 41.72728615 102.30257885 47.67948627 105.73608398 53.63232422 C106.36780518 54.72891357 106.99952637 55.82550293 107.65039062 56.95532227 C108.24070068 57.97924072 108.83101074 59.00315918 109.43920898 60.05810547 C110.21506348 61.40449097 110.21506348 61.40449097 111.0065918 62.77807617 C112.46303311 65.35936478 112.46303311 65.35936478 114.23901367 67.83618164 C115.48608398 70.31982422 115.48608398 70.31982422 115.35180664 72.8034668 C114.37974786 75.62890668 113.14965758 78.00442369 111.63452148 80.58154297 C110.73950928 82.11705811 110.73950928 82.11705811 109.82641602 83.68359375 C108.85357666 85.32884033 108.85357666 85.32884033 107.86108398 87.00732422 C107.1856832 88.16166571 106.51105383 89.31645886 105.8371582 90.47167969 C104.43214796 92.87874259 103.02381604 95.28381386 101.61303711 97.6875 C98.25002682 103.42314743 94.93236803 109.18493973 91.61108398 114.94482422 C91.0302002 115.94860107 90.44931641 116.95237793 89.85083008 117.98657227 C84.99277136 126.39401333 80.24765717 134.85480522 75.48608398 143.31982422 C47.76608398 143.31982422 20.04608398 143.31982422 -8.51391602 143.31982422 C-15.44391602 130.94482422 -15.44391602 130.94482422 -22.51391602 118.31982422 C-31.24515789 103.28646684 -31.24515789 103.28646684 -40.09594727 88.32373047 C-41.21477561 86.42679482 -42.33327931 84.52966764 -43.45141602 82.63232422 C-43.97815918 81.76510742 -44.50490234 80.89789063 -45.04760742 80.00439453 C-45.5198877 79.19711914 -45.99216797 78.38984375 -46.47875977 77.55810547 C-46.89762451 76.8572583 -47.31648926 76.15641113 -47.74804688 75.43432617 C-48.76282653 72.63260269 -48.39641115 71.14718298 -47.51391602 68.31982422 C-46.35327148 65.96166992 -46.35327148 65.96166992 -44.88110352 63.49560547 C-44.32970703 62.56240479 -43.77831055 61.6292041 -43.21020508 60.66772461 C-42.60917969 59.66604248 -42.0081543 58.66436035 -41.38891602 57.63232422 C-40.10951894 55.47131047 -38.8309001 53.30983583 -37.55297852 51.14794922 C-36.88814453 50.02710938 -36.22331055 48.90626953 -35.53833008 47.75146484 C-32.23611822 42.1537936 -29.00208417 36.51720106 -25.76391602 30.88232422 C-21.41174321 23.32724882 -17.0507322 15.77776143 -12.63891602 8.25732422 C-12.02258301 7.20363647 -12.02258301 7.20363647 -11.39379883 6.12866211 C-7.91159253 0.21209358 -6.68066635 0.14977987 0 0 Z " fill="#FDFDFD" transform="translate(222.513916015625,347.68017578125)"/>
<path d="M0 0 C0.77251602 0.00359528 1.54503204 0.00719055 2.34095764 0.01089478 C3.55549622 0.01067574 3.55549622 0.01067574 4.79457092 0.01045227 C7.48380671 0.01115163 10.17297412 0.01894507 12.86219788 0.02676392 C14.72164878 0.02862802 16.58110018 0.03005196 18.44055176 0.03105164 C23.34458258 0.03487746 28.24858398 0.04470829 33.15260315 0.05575562 C38.15280255 0.06596836 43.15300669 0.07054896 48.1532135 0.07559204 C57.97158583 0.0863305 67.78993629 0.10340769 77.60829163 0.12442017 C79.94561029 4.17515579 82.28284503 8.22593983 84.62001038 12.27676392 C85.13743081 13.17356526 85.13743081 13.17356526 85.66530418 14.08848381 C89.44650915 20.64226169 93.2271802 27.19634186 97.00282288 33.75332642 C97.58096741 34.75653931 98.15911194 35.7597522 98.754776 36.79336548 C99.92854889 38.83198745 101.10023113 40.87181387 102.270401 42.9125061 C105.05477541 47.75661489 107.86213449 52.57538636 110.80751038 57.32363892 C111.28534973 58.1021521 111.76318909 58.88066528 112.25550842 59.68276978 C113.12397581 61.08977785 114.00589895 62.48861825 114.9044342 63.87661743 C116.68867057 66.77986579 117.65257185 68.5836013 117.37049866 72.02871704 C116.60458635 75.13946913 115.6189427 77.31100488 113.97547913 80.04629517 C113.1483844 81.44114136 113.1483844 81.44114136 112.30458069 82.86416626 C111.7035553 83.85755005 111.10252991 84.85093384 110.48329163 85.87442017 C109.20390377 88.02762528 107.9252846 90.18128727 106.64735413 92.33535767 C105.98252014 93.45007446 105.31768616 94.56479126 104.63270569 95.71328735 C101.32796015 101.28177561 98.09236419 106.88968624 94.85829163 112.49942017 C94.28191956 113.49425415 93.70554749 114.48908813 93.11170959 115.5140686 C87.83192596 124.65540796 82.71808141 133.88729386 77.60829163 143.12442017 C67.03097601 143.68324964 56.45721781 144.10818888 45.86809349 144.36791229 C40.94868115 144.49266833 36.03942744 144.66130106 31.12586975 144.93496704 C-0.50135841 146.65065354 -0.50135841 146.65065354 -8.47135925 140.90380859 C-13.36686548 135.32136402 -16.01863546 129.00102741 -18.37174988 122.02401733 C-19.69915624 118.25038953 -21.49184919 115.21371876 -23.61827087 111.83145142 C-25.3713708 108.79561354 -27.11966944 105.75717757 -28.86216736 102.71524048 C-31.87986863 97.45143381 -34.92780863 92.21419031 -38.07530212 87.02676392 C-38.93164246 85.5933667 -38.93164246 85.5933667 -39.80528259 84.13101196 C-40.87508087 82.34257661 -41.96051277 80.56336567 -43.06407166 78.79556274 C-46.48568248 73.02078859 -46.48568248 73.02078859 -46.08702087 69.21817017 C-43.53199756 64.55554697 -40.92872046 59.94070982 -38.20420837 55.37442017 C-36.93525382 53.22510869 -35.66705108 51.07535319 -34.39952087 48.92520142 C-33.41193787 47.25385132 -33.41193787 47.25385132 -32.40440369 45.54873657 C-29.08972018 39.90927141 -25.83744112 34.23411872 -22.57920837 28.56192017 C-18.43734466 21.36782068 -14.28331372 14.18292594 -10.01670837 7.06192017 C-9.47179749 6.15107666 -9.47179749 6.15107666 -8.9158783 5.22183228 C-6.07318532 0.51078198 -5.60384575 0.01100881 0 0 Z " fill="#FDFDFD" transform="translate(78.39170837402344,102.87557983398438)"/>
<path d="M0 0 C27.72 0 55.44 0 84 0 C88.95 8.91 88.95 8.91 94 18 C96.1941475 21.80154544 98.39713797 25.59366511 100.625 29.375 C101.80649587 31.39944419 102.98746127 33.42419804 104.16796875 35.44921875 C106.17081007 38.88032872 108.17987596 42.30744062 110.20556641 45.72509766 C112.09606634 48.91480338 113.97226627 52.11256388 115.840271 55.31549072 C116.56746897 56.55618099 117.29988263 57.79382997 118.03765869 59.02825928 C119.06845795 60.75439475 120.07958758 62.4922302 121.08984375 64.23046875 C121.67628662 65.22457764 122.26272949 66.21868652 122.86694336 67.24291992 C124.17909941 70.43580471 124.09047616 71.76993092 123 75 C121.68628812 77.46102026 120.33243115 79.81474494 118.875 82.1875 C117.95957178 83.71011723 117.0456044 85.23361336 116.1328125 86.7578125 C115.38112793 88.00933105 115.38112793 88.00933105 114.61425781 89.28613281 C111.60440031 94.34626227 108.68357188 99.45790319 105.75 104.5625 C100.55972263 113.57306602 95.35578348 122.57539572 90.125 131.5625 C89.52397461 132.59769775 88.92294922 133.63289551 88.30371094 134.69946289 C87.75231445 135.6455542 87.20091797 136.59164551 86.6328125 137.56640625 C86.14699707 138.40115479 85.66118164 139.23590332 85.16064453 140.09594727 C84 142 84 142 83 143 C80.48777183 143.16413898 78.00155572 143.26342759 75.48608398 143.31982422 C74.30545128 143.35136597 74.30545128 143.35136597 73.10096741 143.38354492 C65.82109169 143.56676045 58.53959052 143.67264119 51.25794888 143.75568962 C46.36456916 143.8122774 41.47447573 143.8937402 36.58276367 144.03564453 C31.85446799 144.17225294 27.12914945 144.24454868 22.39900398 144.27234268 C20.59936685 144.2937792 18.79984695 144.33775684 17.00134087 144.405056 C5.59219631 144.81223605 5.59219631 144.81223605 1 143 C-2.98170244 139.08558801 -4.81072753 135.14349237 -7 130 C-8.20634709 127.7786238 -9.49473919 125.62188943 -10.7890625 123.44921875 C-12.06958466 121.19637798 -13.34817935 118.9424407 -14.625 116.6875 C-16.0152749 114.24124549 -17.40771767 111.79622985 -18.80078125 109.3515625 C-19.14898422 108.74029007 -19.49718719 108.12901764 -19.85594177 107.4992218 C-23.4689657 101.16411036 -27.13423283 94.85996218 -30.8125 88.5625 C-31.68285889 87.07206177 -31.68285889 87.07206177 -32.57080078 85.55151367 C-35.51938354 80.44803344 -35.51938354 80.44803344 -38.73706055 75.51538086 C-40 73 -40 73 -39.87939453 70.54370117 C-38.84916134 67.56369018 -37.51350674 65.02956515 -35.9296875 62.30078125 C-35.28773438 61.18654785 -34.64578125 60.07231445 -33.984375 58.92431641 C-33.28136754 57.72030897 -32.57823956 56.51637189 -31.875 55.3125 C-31.15298543 54.06467225 -30.43164054 52.8164568 -29.7109375 51.56787109 C-28.22085935 48.98886114 -26.72687101 46.41218022 -25.22949219 43.83740234 C-23.10545475 40.18422849 -20.99215201 36.52495729 -18.8828125 32.86328125 C-16.42501244 28.59713433 -13.96425151 24.33273566 -11.5 20.0703125 C-7.64862255 13.39057973 -3.8254834 6.69459595 0 0 Z " fill="#FDB700" transform="translate(214,21)"/>
<path d="M0 0 C10.77818511 -0.39497147 21.55463508 -0.69645759 32.33859825 -0.88080692 C37.34732002 -0.9693237 42.35107308 -1.08918118 47.35693359 -1.2824707 C52.1944244 -1.46807634 57.02716154 -1.56898755 61.867939 -1.61291313 C63.70813549 -1.64417969 65.54808831 -1.70525856 67.38624191 -1.79741096 C79.07531516 -2.35977099 79.07531516 -2.35977099 84 0 C88.33868394 4.11478872 90.74754635 9.49172143 93.07320976 14.91377258 C94.40228116 17.9055447 96.04012278 20.63149863 97.73046875 23.43359375 C99.51331851 26.52528163 101.29176109 29.61941501 103.06640625 32.71582031 C106.08664335 37.97849249 109.12159541 43.22693889 112.2459259 48.42835999 C113.66545089 50.79390257 115.07281905 53.16656967 116.47940063 55.53982544 C117.47998885 57.21646817 118.49801494 58.88266495 119.51635742 60.54858398 C120.11939697 61.56895752 120.72243652 62.58933105 121.34375 63.640625 C122.15102539 64.97915527 122.15102539 64.97915527 122.97460938 66.34472656 C124.27965021 69.72416088 123.96814282 71.53494799 123 75 C121.83935547 77.47167969 121.83935547 77.47167969 120.3671875 79.921875 C119.54009277 81.31684204 119.54009277 81.31684204 118.69628906 82.73999023 C118.09526367 83.73329346 117.49423828 84.72659668 116.875 85.75 C115.59552871 87.90185315 114.31691261 90.05421498 113.0390625 92.20703125 C112.37422852 93.32158691 111.70939453 94.43614258 111.02441406 95.58447266 C107.71296807 101.17143954 104.48358708 106.80523084 101.25 112.4375 C99.52851014 115.43386451 97.80781389 118.42590522 96.02749634 121.38777161 C94.52716943 123.95600777 93.29343866 126.55670148 92.10998535 129.28440857 C86.9129596 140.53890427 86.9129596 140.53890427 82.05367279 142.97624779 C76.48809407 144.50278043 70.79286293 144.18138455 65.078125 143.9765625 C63.24593012 143.96768344 61.41369536 143.96505307 59.58148193 143.96835327 C55.75607827 143.95735792 51.93750559 143.88944035 48.11376953 143.77685547 C43.22057024 143.63478991 38.33522379 143.60794416 33.44023514 143.6199894 C29.66306825 143.62142914 25.88762453 143.57636522 22.1109848 143.51585007 C20.30744626 143.48980328 18.50371233 143.47478826 16.69998932 143.47117996 C2.71557827 143.38872053 2.71557827 143.38872053 -1.35693359 140.09211731 C-2.93390331 137.7784772 -3.99352714 135.60594302 -5 133 C-5.57556641 132.03118896 -6.15113281 131.06237793 -6.74414062 130.06420898 C-7.44313477 128.79299194 -7.44313477 128.79299194 -8.15625 127.49609375 C-8.69693115 126.51987061 -9.2376123 125.54364746 -9.79467773 124.5378418 C-10.35743408 123.514729 -10.92019043 122.49161621 -11.5 121.4375 C-17.44470923 110.72328208 -23.54701273 100.11169577 -29.74609375 89.54296875 C-30.52895752 88.19211182 -30.52895752 88.19211182 -31.32763672 86.81396484 C-32.52413721 84.80069992 -33.76558733 82.81388137 -35.03564453 80.84619141 C-35.6954834 79.79995605 -36.35532227 78.7537207 -37.03515625 77.67578125 C-37.64883057 76.73259033 -38.26250488 75.78939941 -38.89477539 74.81762695 C-40 72 -40 72 -39.36962891 68.98022461 C-38.04711305 66.10251497 -36.65089903 63.3735324 -35.05078125 60.640625 C-34.45724854 59.62000977 -33.86371582 58.59939453 -33.25219727 57.54785156 C-32.61209717 56.45956055 -31.97199707 55.37126953 -31.3125 54.25 C-30.30027031 52.51278003 -29.28804922 50.77555498 -28.27635193 49.0380249 C-27.22430046 47.23271216 -26.1699205 45.42877458 -25.11523438 43.625 C-21.74003665 37.84736895 -18.40343366 32.04748999 -15.0625 26.25 C-14.47315674 25.22938477 -13.88381348 24.20876953 -13.27661133 23.15722656 C-10.0978508 17.65088069 -6.93202163 12.13735187 -3.77905273 6.61621094 C-3.41343987 5.97618134 -3.047827 5.33615173 -2.67113495 4.67672729 C-1.78066507 3.1178705 -0.89031944 1.55894272 0 0 Z " fill="#FEB700" transform="translate(72,267)"/>
<path d="M0 0 C4.99289558 0.19539055 9.98758827 0.28134998 14.98321533 0.37689209 C24.76208795 0.57987375 34.53286903 0.90350804 44.30548096 1.30462646 C44.97457993 2.47726799 44.97457993 2.47726799 45.65719604 3.67359924 C47.3498284 6.63948632 49.04291923 9.60511075 50.73629761 12.5705719 C51.46210137 13.84181274 52.18773449 15.11315103 52.91317749 16.38459778 C57.79673967 24.94342028 62.71620214 33.47978713 67.68048096 41.99212646 C68.2778154 43.01828568 68.87514984 44.04444489 69.49058533 45.10169983 C72.08993944 49.56528324 74.72093295 54.00311448 77.43438721 58.39837646 C77.91150146 59.17995117 78.38861572 59.96152588 78.88018799 60.76678467 C79.75797245 62.20014285 80.64744042 63.62644391 81.55108643 65.04364014 C84.37043353 69.66896412 84.37043353 69.66896412 84.05841064 72.72259521 C83.27222346 75.41867682 82.25294124 77.54665263 80.85626221 79.98040771 C80.34506836 80.87840088 79.83387451 81.77639404 79.30718994 82.70159912 C78.47103149 84.14478516 78.47103149 84.14478516 77.61798096 85.61712646 C76.74991821 87.13378906 76.74991821 87.13378906 75.86431885 88.68109131 C71.1813895 96.84364925 66.44587602 104.97675139 61.67974854 113.09100342 C55.79868145 123.11336311 50.07266556 133.21205342 44.30548096 143.30462646 C16.58548096 143.30462646 -11.13451904 143.30462646 -39.69451904 143.30462646 C-44.97451904 134.06462646 -50.25451904 124.82462646 -55.69451904 115.30462646 C-64.47930896 99.79607481 -64.47930896 99.79607481 -73.66717529 84.52337646 C-74.10102539 83.82833008 -74.53487549 83.13328369 -74.98187256 82.41717529 C-76.09119685 80.6561481 -77.22001425 78.90743913 -78.35076904 77.16009521 C-79.94642918 73.76931742 -79.69703491 72.83152617 -78.69451904 69.30462646 C-77.51800537 66.82293701 -77.51800537 66.82293701 -76.02655029 64.19134521 C-75.19184204 62.70852051 -75.19184204 62.70852051 -74.340271 61.19573975 C-73.73529785 60.13854736 -73.13032471 59.08135498 -72.50701904 57.99212646 C-71.56958862 56.33672852 -71.56958862 56.33672852 -70.61322021 54.64788818 C-56.88535344 30.47845503 -56.88535344 30.47845503 -52.5223999 23.71502686 C-50.95396853 20.78869884 -50.16815835 18.5457366 -49.32171631 15.39227295 C-42.34395586 -6.11008185 -18.44868495 -0.79797118 0 0 Z " fill="#FEFEFE" transform="translate(253.69451904296875,183.69537353515625)"/>
<path d="M0 0 C6.59729223 4.20424882 9.6069159 10.66850491 13.3125 17.375 C14.30179021 19.14074399 15.29458293 20.90448243 16.28791809 22.66795349 C17.25991095 24.39394927 18.22909683 26.12152484 19.19824219 27.84912109 C20.73708478 30.54021899 22.3218927 33.18002739 23.9765625 35.80078125 C24.6121106 36.81035889 24.6121106 36.81035889 25.26049805 37.84033203 C26.34974731 39.54978234 27.45355074 41.2499353 28.55859375 42.94921875 C30.40831015 46.86420115 30.69246714 48.68741981 30 53 C28.18760594 57.11109653 25.96201693 60.94209347 23.6875 64.8125 C22.74040161 66.46016357 22.74040161 66.46016357 21.77416992 68.14111328 C19.86880566 71.43920065 17.93971317 74.72201561 16 78 C15.44086914 78.94762207 14.88173828 79.89524414 14.30566406 80.87158203 C12.81884521 83.37949695 11.32085285 85.87998611 9.8125 88.375 C9.36801514 89.11081299 8.92353027 89.84662598 8.46557617 90.60473633 C8.05025635 91.27915771 7.63493652 91.9535791 7.20703125 92.6484375 C6.67299683 93.51734619 6.67299683 93.51734619 6.12817383 94.40380859 C3.67841511 97.86983813 2.45726175 98.88755859 -1.8125 99.9375 C-5.23074155 100.25225521 -6.11239363 99.94380319 -9.375 98.3125 C-12.79121237 95.30297958 -13.85171945 93.75561071 -14.2331543 89.23950195 C-13.95597726 85.38833739 -12.86520937 83.34801286 -10.89453125 80.04296875 C-10.24033203 78.92986328 -9.58613281 77.81675781 -8.91210938 76.66992188 C-8.21266397 75.50885882 -7.51279164 74.34805285 -6.8125 73.1875 C-6.13093791 72.03913676 -5.45058833 70.89005298 -4.77148438 69.74023438 C0.64602948 60.58067192 0.64602948 60.58067192 2.63916016 57.31103516 C3.10499512 56.52390137 3.57083008 55.73676758 4.05078125 54.92578125 C4.45594971 54.25587158 4.86111816 53.58596191 5.27856445 52.89575195 C6.20192635 50.46938813 5.90226348 49.40868967 5 47 C4.37568946 45.69947942 3.70410977 44.42097568 2.99609375 43.1640625 C2.58858887 42.43630615 2.18108398 41.7085498 1.76123047 40.95874023 C1.32439941 40.18860596 0.88756836 39.41847168 0.4375 38.625 C-0.00706543 37.82715088 -0.45163086 37.02930176 -0.90966797 36.20727539 C-3.01988737 32.43396805 -5.16486814 28.69514296 -7.44140625 25.01953125 C-14.21353767 14.00084392 -14.21353767 14.00084392 -13.60546875 7.83984375 C-12.5587139 4.65905966 -10.60195554 2.98244231 -8 1 C-5.09704195 -0.45147903 -3.22738221 -0.37239025 0 0 Z " fill="#312B3A" transform="translate(140,288)"/>
<path d="M0 0 C1.13888672 0.04833984 1.13888672 0.04833984 2.30078125 0.09765625 C9.57625957 2.65776728 13.47282062 13.19979847 17 19.4375 C17.99931037 21.19799331 18.99956084 22.95794981 19.99996948 24.71781921 C20.97180379 26.42803452 21.94221313 28.13905932 22.91259766 29.85009766 C24.39656759 32.43142967 25.91490962 34.97948992 27.48046875 37.51171875 C27.86356201 38.14078125 28.24665527 38.76984375 28.64135742 39.41796875 C29.60336044 40.98770623 30.58215132 42.54712282 31.5625 44.10546875 C33.02954075 47.79854009 32.96195815 50.26625488 31.6875 53.9375 C29.75034574 58.01949636 27.52005215 61.90791588 25.25 65.8125 C24.61980957 66.91352051 23.98961914 68.01454102 23.34033203 69.14892578 C22.0659104 71.37050457 20.78633955 73.58913795 19.50146484 75.8046875 C17.87658913 78.61093314 16.27213723 81.42747327 14.67578125 84.25 C13.80570497 85.77141566 12.93468629 87.29229297 12.0625 88.8125 C11.47964233 89.84479736 11.47964233 89.84479736 10.88500977 90.89794922 C8.89770415 94.3068789 7.2038861 97.03193404 3.6875 98.9375 C0.60999534 99.59814501 -2.22548307 99.54279744 -5.3125 98.9375 C-9.04426417 95.9831867 -11.01423458 93.74420611 -11.7890625 89.05078125 C-11.69287692 83.05159373 -7.72766971 78.06451115 -4.6875 73.125 C-4.07003906 72.09568359 -3.45257813 71.06636719 -2.81640625 70.00585938 C2.17547334 61.69832081 2.17547334 61.69832081 4.55761719 58.15869141 C5.12383789 57.29808105 5.69005859 56.4374707 6.2734375 55.55078125 C6.78696777 54.80223877 7.30049805 54.05369629 7.82958984 53.2824707 C9.07097441 49.88932935 8.11811426 48.19168026 6.6875 44.9375 C5.69966406 43.0465616 4.65761082 41.18320801 3.5703125 39.34765625 C2.96316406 38.31576172 2.35601562 37.28386719 1.73046875 36.22070312 C1.09753906 35.15787109 0.46460938 34.09503906 -0.1875 33 C-1.43508154 30.88682838 -2.68248204 28.77354986 -3.9296875 26.66015625 C-6.26838451 22.69823199 -6.26838451 22.69823199 -8.62963867 18.74975586 C-11.13168672 14.52975032 -12.12280226 11.88934712 -11.3125 6.9375 C-8.397451 2.15079592 -5.66580024 -0.37137178 0 0 Z " fill="#312C3E" transform="translate(279.3125,370.0625)"/>
<path d="M0 0 C4.13328606 2.7846916 6.29365831 5.69883576 8.70703125 10.0234375 C9.03611984 10.60606354 9.36520844 11.18868958 9.70426941 11.78897095 C10.75017118 13.6456681 11.78160366 15.50993772 12.8125 17.375 C13.4918718 18.58778164 14.17220383 19.80002589 14.85351562 21.01171875 C15.87570134 22.82997614 16.89510103 24.64946714 17.90505981 26.47454834 C19.6500653 29.62490448 21.43262291 32.7422012 23.29443359 35.82519531 C23.85151253 36.75980087 23.85151253 36.75980087 24.41984558 37.71328735 C25.45018798 39.43617385 26.4936119 41.1512177 27.5378418 42.86572266 C29.13721921 46.29414262 29.44382032 48.26770066 29 52 C28.1965332 54.16796875 28.1965332 54.16796875 27.05078125 56.1875 C26.62112061 56.95827881 26.19145996 57.72905762 25.7487793 58.52319336 C25.27480713 59.34053955 24.80083496 60.15788574 24.3125 61 C23.82499268 61.85924072 23.33748535 62.71848145 22.83520508 63.60375977 C21.78624172 65.44412481 20.73058912 67.28069015 19.66894531 69.11376953 C17.95662209 72.07501663 16.27095069 75.05048711 14.5859375 78.02734375 C13.45479464 79.99835496 12.32201982 81.96843064 11.1875 83.9375 C10.3982312 85.3306543 10.3982312 85.3306543 9.59301758 86.75195312 C6.60136817 91.86730136 3.92771755 95.64612808 -1 99 C-5.11195254 99.7709911 -6.65147126 99.19728042 -10.3125 97.125 C-13.81523836 94.35539293 -13.81523836 94.35539293 -14.25366211 91.13916016 C-14.50144715 84.74167325 -12.852768 80.77387502 -9.5625 75.375 C-9.11672607 74.60518799 -8.67095215 73.83537598 -8.21166992 73.04223633 C-5.97768508 69.20854962 -3.65516446 65.43398043 -1.296875 61.67578125 C-0.87849365 61.0017627 -0.4601123 60.32774414 -0.02905273 59.63330078 C0.76356581 58.3655565 1.57075171 57.10676859 2.39428711 55.85888672 C4.50548049 52.53331457 4.50548049 52.53331457 4.81323242 48.70629883 C3.80087291 45.33733901 2.27177645 42.60730682 0.5078125 39.5625 C-0.01209763 38.65866577 -0.01209763 38.65866577 -0.54251099 37.73657227 C-1.64680047 35.82051415 -2.76075056 33.91027966 -3.875 32 C-4.61652023 30.71651238 -5.35741202 29.43266147 -6.09765625 28.1484375 C-9.82314969 21.66727924 -9.82314969 21.66727924 -13.70751953 15.28125 C-15.43181748 12.23783481 -15.49345085 10.45415593 -15 7 C-13.36235678 3.9586626 -11.90006661 1.71384593 -9.1875 -0.4375 C-5.82536233 -1.30204969 -3.35188798 -0.82327073 0 0 Z " fill="#312C3E" transform="translate(141,125)"/>
<path d="M0 0 C7.04504692 3.20684924 9.72609451 9.77301635 13.3125 16.3125 C14.30145868 18.08725527 15.29440811 19.85973204 16.28791809 21.63194275 C17.26034596 23.36726285 18.22931832 25.10451786 19.19824219 26.84179688 C20.7277768 29.52283477 22.30863071 32.13827326 23.9765625 34.734375 C24.40026123 35.39783936 24.82395996 36.06130371 25.26049805 36.74487305 C26.34709467 38.42288837 27.45204134 40.08898301 28.55859375 41.75390625 C30.51378627 46.15706338 31.05560124 49.26673508 30 54 C27.89366907 58.7712697 25.26201633 63.17590553 22.5625 67.625 C21.82300326 68.873878 21.08513416 70.12372116 20.34887695 71.37451172 C18.90442149 73.82135371 17.44934273 76.26128626 15.98339844 78.6953125 C14.31101123 81.48180108 12.6652283 84.28016977 11.0390625 87.09375 C5.43789866 96.70806756 5.43789866 96.70806756 2 99 C-2.56051995 99.73446576 -6.01911074 99.59262059 -10 97.1875 C-12.59421545 94.35007685 -12.96078096 92.50544419 -13.2565918 88.69311523 C-12.96900613 84.55390656 -12.00406184 82.45205954 -9.89453125 78.91015625 C-8.91323242 77.23856445 -8.91323242 77.23856445 -7.91210938 75.53320312 C-7.21251403 74.3761361 -6.51264251 73.21923602 -5.8125 72.0625 C-5.13078764 70.91031695 -4.45043722 69.75732694 -3.77148438 68.60351562 C-0.92878043 63.80281266 1.94088255 59.08514555 5.11328125 54.49609375 C7.37969286 51.27499921 7.37969286 51.27499921 6.31274414 48.63842773 C4.90518282 45.80943104 3.43474886 43.04185334 1.8828125 40.2890625 C1.27566406 39.20882812 0.66851562 38.12859375 0.04296875 37.015625 C-0.90642578 35.33726562 -0.90642578 35.33726562 -1.875 33.625 C-2.50019531 32.51382813 -3.12539063 31.40265625 -3.76953125 30.2578125 C-6.28251009 25.79501709 -8.7975872 21.33883918 -11.41015625 16.93359375 C-13.40975964 13.24390789 -13.67716393 11.13822404 -13 7 C-9.63005659 1.46632909 -6.47554862 -0.62264891 0 0 Z " fill="#302A3A" transform="translate(423,288)"/>
<path d="M0 0 C0.75925781 -0.04898438 1.51851563 -0.09796875 2.30078125 -0.1484375 C6.38857103 0.74806631 8.51750206 3.65448966 10.80981445 7.02539062 C11.9815778 8.93110416 13.09151927 10.8622246 14.1875 12.8125 C15.04797316 14.32377513 15.9100377 15.83414496 16.7734375 17.34375 C17.46518066 18.55417969 17.46518066 18.55417969 18.17089844 19.7890625 C19.80309339 22.57209678 21.50663944 25.30162547 23.2265625 28.03125 C23.82146484 28.9910376 24.41636719 29.9508252 25.02929688 30.93969727 C26.19351065 32.81528646 27.37387906 34.68097086 28.57226562 36.53491211 C31.64198525 41.54444704 33.71920047 45.76234421 33.32324219 51.72924805 C31.96227903 57.39313352 28.79099106 62.15814067 25.75 67.0625 C25.05554333 68.21325326 24.36292651 69.36511875 23.67211914 70.51806641 C22.311668 72.78266383 20.93932316 75.03843547 19.55957031 77.29150391 C17.96009624 79.92600542 16.41194737 82.57732652 14.8984375 85.26171875 C14.50519287 85.95112549 14.11194824 86.64053223 13.70678711 87.35083008 C12.70750164 89.10516131 11.71104484 90.86110296 10.71484375 92.6171875 C8.37282276 95.80305806 6.14947472 97.48954132 2.6875 99.375 C-1.86902789 99.45493909 -3.69693301 98.89689375 -7.1875 95.9375 C-10.30002549 92.18416044 -10.67478488 90.23828865 -10.3125 85.375 C-9.12255859 82.55761719 -9.12255859 82.55761719 -7.4609375 79.671875 C-6.85636719 78.60839844 -6.25179688 77.54492188 -5.62890625 76.44921875 C-4.98824219 75.35222656 -4.34757812 74.25523437 -3.6875 73.125 C-3.07003906 72.04347656 -2.45257813 70.96195312 -1.81640625 69.84765625 C3.08656759 61.29067665 3.08656759 61.29067665 5.55761719 57.52539062 C6.12383789 56.65591797 6.69005859 55.78644531 7.2734375 54.890625 C7.78696777 54.13555664 8.30049805 53.38048828 8.82958984 52.60253906 C9.95372806 50.34783076 9.95372806 50.34783076 8.96972656 47.83862305 C8.5465918 47.02562744 8.12345703 46.21263184 7.6875 45.375 C7.35153809 44.7157251 7.01557617 44.0564502 6.66943359 43.37719727 C6.31187988 42.73838623 5.95432617 42.0995752 5.5859375 41.44140625 C5.18165527 40.71663086 4.77737305 39.99185547 4.36083984 39.24511719 C3.9323877 38.48360352 3.50393555 37.72208984 3.0625 36.9375 C2.40241943 35.75075684 2.40241943 35.75075684 1.72900391 34.54003906 C-0.38040084 30.75938938 -2.51834688 27.00290853 -4.75 23.29296875 C-5.12044434 22.670271 -5.49088867 22.04757324 -5.87255859 21.40600586 C-6.87595553 19.72792685 -7.89453044 18.05895019 -8.9140625 16.390625 C-10.46533217 13.04542895 -10.73684966 11.01733455 -10.3125 7.375 C-7.42035098 2.26553673 -5.83674839 0.25505119 0 0 Z " fill="#302B3D" transform="translate(278.3125,206.625)"/>
<path d="M0 0 C4.30911604 2.01891847 6.12257803 4.26862079 8.41796875 8.3828125 C9.33340454 9.99881348 9.33340454 9.99881348 10.26733398 11.64746094 C10.90098877 12.79504883 11.53464355 13.94263672 12.1875 15.125 C13.181122 16.89804454 14.17829163 18.6690636 15.17555237 20.44006348 C15.83909085 21.61944356 16.50107233 22.799701 17.16148376 23.98083496 C19.11051392 27.45911357 21.11814712 30.89068136 23.203125 34.2890625 C23.90465698 35.43737549 23.90465698 35.43737549 24.62036133 36.60888672 C25.4725058 37.99411508 26.33376148 39.37379719 27.20581055 40.74658203 C29.64872585 44.7593794 30.40676765 47.34089283 30 52 C28.87353516 54.70629883 28.87353516 54.70629883 27.2890625 57.45703125 C26.70833984 58.47958008 26.12761719 59.50212891 25.52929688 60.55566406 C24.90087891 61.63041992 24.27246094 62.70517578 23.625 63.8125 C22.98884766 64.91948242 22.35269531 66.02646484 21.69726562 67.16699219 C20.41080024 69.40114078 19.11885615 71.6321441 17.82128906 73.85986328 C16.20749971 76.64224379 14.62384068 79.43839513 13.0546875 82.24609375 C12.20387197 83.74781928 11.35236576 85.24915382 10.5 86.75 C10.1282666 87.42135986 9.7565332 88.09271973 9.37353516 88.78442383 C6.82607374 93.18639615 4.16979727 96.0484702 0 99 C-4.23610875 99.66885928 -6.16191195 99.52147701 -9.8125 97.25 C-12.75691916 94.22145458 -13.87391181 92.46709001 -14.23706055 88.24169922 C-13.95514983 84.38669353 -12.85842244 82.32242589 -10.89453125 79.0078125 C-10.24033203 77.89019531 -9.58613281 76.77257812 -8.91210938 75.62109375 C-8.21245412 74.45560035 -7.51258294 73.29023655 -6.8125 72.125 C-6.13099108 70.96813659 -5.45064184 69.81058919 -4.77148438 68.65234375 C-1.93803382 63.84791735 0.91972727 59.10808237 4.05078125 54.4921875 C6.17930842 51.30030674 6.17930842 51.30030674 6.09375 48.48828125 C4.50448424 44.87270165 2.5625825 41.55157436 0.5 38.1875 C-0.40455246 36.67502101 -1.30817555 35.16198588 -2.2109375 33.6484375 C-2.67209961 32.87983398 -3.13326172 32.11123047 -3.60839844 31.31933594 C-5.80243036 27.66261607 -7.98217825 23.9994905 -10.125 20.3125 C-10.51494141 19.66627686 -10.90488281 19.02005371 -11.30664062 18.35424805 C-13.57997537 14.41252903 -14.64586401 11.54688264 -14 7 C-10.61739864 0.84159981 -6.75074048 -0.45767732 0 0 Z " fill="#312B3A" transform="translate(282,43)"/>
<path d="M0 0 C3.05866801 2.16779384 4.54031141 5.21258075 6.32421875 8.42578125 C7.19205846 9.95609789 8.06059653 11.48601862 8.9296875 13.015625 C9.40970215 13.86624512 9.8897168 14.71686523 10.38427734 15.59326172 C12.2121864 18.77469 14.10259558 21.91423359 16 25.0546875 C17.03716243 26.79004381 18.07189398 28.52681823 19.10531616 30.2644043 C20.12103305 31.96206432 21.15281406 33.65007975 22.18481445 35.33789062 C28.14797675 45.4486391 28.14797675 45.4486391 27.64697266 50.34008789 C26.10765288 55.39404978 23.3192969 59.84726411 20.63671875 64.36328125 C20.00056641 65.46051514 19.36441406 66.55774902 18.70898438 67.68823242 C17.42392534 69.90068867 16.13200601 72.10917553 14.83300781 74.31347656 C13.20793617 77.09047566 11.62649789 79.88538471 10.06640625 82.69921875 C9.21528177 84.21248603 8.36375198 85.72552545 7.51171875 87.23828125 C7.13998535 87.91818115 6.76825195 88.59808105 6.38525391 89.29858398 C3.90025119 93.61373511 1.37758989 96.04333006 -2.98828125 98.42578125 C-6.10512194 99.01018888 -7.92262922 99.07659904 -10.6640625 97.40234375 C-14.48927246 94.38964855 -15.69670686 92.23019656 -16.46484375 87.4765625 C-16.36787397 81.51604923 -12.38259956 76.51891412 -9.36328125 71.61328125 C-8.74582031 70.58396484 -8.12835938 69.55464844 -7.4921875 68.49414062 C-2.56065221 60.28702768 -2.56065221 60.28702768 -0.11816406 56.61181641 C0.44805664 55.74218262 1.01427734 54.87254883 1.59765625 53.9765625 C2.11118652 53.21641846 2.6247168 52.45627441 3.15380859 51.6730957 C4.26260585 49.42490656 4.26260585 49.42490656 3.37329102 47.01416016 C1.85294793 44.12395443 0.28838598 41.28095195 -1.359375 38.4609375 C-2.01615234 37.33107422 -2.67292969 36.20121094 -3.34960938 35.03710938 C-4.04141898 33.8540218 -4.73347833 32.67108022 -5.42578125 31.48828125 C-6.78095555 29.16799576 -8.13316349 26.84603906 -9.484375 24.5234375 C-10.08435303 23.49742432 -10.68433105 22.47141113 -11.30249023 21.41430664 C-16.78597043 11.69333907 -16.78597043 11.69333907 -15.98828125 5.42578125 C-11.96131331 -0.74890293 -7.03658098 -2.03217565 0 0 Z " fill="#302C3D" transform="translate(425.98828125,125.57421875)"/>
</svg>
