<?xml version="1.0" encoding="UTF-8"?>
<svg id="Layer_1" data-name="Layer 1" xmlns="http://www.w3.org/2000/svg" version="1.1" viewBox="0 0 500 500">
  <defs>
    <style>
      .cls-1 {
        fill: #36e66c;
      }

      .cls-1, .cls-2, .cls-3, .cls-4, .cls-5, .cls-6, .cls-7, .cls-8 {
        stroke-width: 0px;
      }

      .cls-2 {
        fill: #40dfaf;
      }

      .cls-3 {
        fill: #5a9bd5;
      }

      .cls-4 {
        fill: #80f01d;
      }

      .cls-5 {
        fill: #50cdd9;
      }

      .cls-6 {
        fill: #d7f70f;
      }

      .cls-7 {
        fill: #39ec2a;
      }

      .cls-8 {
        fill: #febf00;
      }
    </style>
  </defs>
  <polygon class="cls-3" points="130.75 57.22 130.75 123.53 188.17 156.68 245.6 123.53 245.6 57.22 188.17 24.06 130.75 57.22"/>
  <polygon class="cls-8" points="254.67 57.02 254.67 123.33 312.09 156.49 369.52 123.33 369.52 57.02 312.09 23.87 254.67 57.02"/>
  <polygon class="cls-4" points="191.85 164.56 191.85 230.87 249.27 264.02 306.7 230.87 306.7 164.56 249.27 131.4 191.85 164.56"/>
  <polygon class="cls-7" points="315.77 164.36 315.77 230.67 373.19 263.83 430.62 230.67 430.62 164.36 373.19 131.21 315.77 164.36"/>
  <polygon class="cls-2" points="130.42 270.91 130.42 337.22 187.84 370.37 245.27 337.22 245.27 270.91 187.84 237.75 130.42 270.91"/>
  <polygon class="cls-5" points="191.96 376.67 191.96 442.98 249.39 476.13 306.81 442.98 306.81 376.67 249.39 343.51 191.96 376.67"/>
  <polygon class="cls-1" points="254.34 270.71 254.34 337.02 311.76 370.18 369.19 337.02 369.19 270.71 311.76 237.56 254.34 270.71"/>
  <polygon class="cls-6" points="69.38 164.36 69.38 230.67 126.81 263.83 184.23 230.67 184.23 164.36 126.81 131.21 69.38 164.36"/>
</svg>